<svg id="Layer_1" data-name="Layer 1" xmlns="http://www.w3.org/2000/svg" viewBox="0 0 577.48 359.09"><defs><style>.cls-1{fill:#9190c3;}.cls-2{fill:#eaeaec;}</style></defs><path class="cls-1" d="M235.42,238.56c-1.29-2.72-3.89-3.46-6.44-4.27l-10-8.41h-8.46l-3.14-.13c-16.33-2.23-30.91-8.05-42.21-20.58a2,2,0,0,0-1.41-2.33l-3.31-8.94c-.08-1-.17-2.08-.25-3.13l2.46-15.8c2.18-1.05,3.16-3.06,4.14-5.08,8.51-9.75,20-14.51,31.68-17.9.22-2.6-.86-3.48-2.43-4-.16-1.65-.49-3.23-1.95-4.3-3.17-5-7.89-9-10.06-14.42,1.61-2.3,4.71-1.89,5.42-4.47.38-1.67-1.74-3.27.29-5.43l5.53-3.08c3-2.45,1-5.42,3.53-7.24l7.62-3.85c16.45-1.86,32.45-.66,46.48,7.44,4-1.54,6.12-3.41,7.25-7.43-10-.33-19-3.58-27.9-7.06A88.24,88.24,0,0,1,212.17,78.9c-1.14-1.62-2.91-1.49-4.57-1.66-9.94-3.7-7.91-11.62-6.82-19.22,3.14,1.35,4.4-.61,5.4-3,1-2,2-4,2.95-6a8.06,8.06,0,0,0,2.94-4.54c2.7-3.23,4-6.76,2.76-11-1.89-6.82-1.4-13.75-.74-20.68L222.68,14c4.24,1.41,8.67,2.43,12.68,4.33,7.13,3.39,12.9,1.73,18.07-3.66a11.1,11.1,0,0,0,7-3.44c7-.64,13.86-4.1,21.14-1.62-.1,1.81.48,3.06,2.53,3.13,3.33,6.51,9.81,9.2,17.37,7.11,6.95-1.91,13.86-3.91,20.79-5.88l3.1.24c1.49,9.46-.12,18.75-1.79,26.76,2.72,8.47,10.58,9.4,15.12,14.16.16.47.33,1,.5,1.42,2.05,11.4-9.88,14.58-13.69,23.2l16.16,10.36,4.9,4.19,5.91,6c.89,1,1.79,2,2.69,3.07a71,71,0,0,1,11.36,40.06l22.32,1.48,2.84,1.18,3.14,1.52c.81,1.23,1.66,2.41,3.87,2.09.28-.59.67-1.38,1.05-2.18,5.47-3.78,11.24-3.7,17.18-1.34.57,1.85,1.14,3.71,3.32,4.34,7.95,12.25,8.05,26.71,11.33,40.27l.12,3.23c-2.06,15.7-11.78,27.16-25.24,28.18-6.42.48-10.8,3.12-14.71,7.57-4.7,2.95-10.48,4.17-14.16,8.78-10.3.81-20.55,2.87-31,1.63l-3.17-.41-10.5-1.91c-3.13-2.37-6.81-3.58-10.43-4.89-6.95-2.88-14.16-.53-21.23-1.08l-6.75-1.33c-6.51,5.12-14.34,7.46-22.08,10l-16.44.94-3.35-.09ZM216.3,216.44l3.47-.52c8.1,15.36,22.49,19.86,38.06,20,16.75.12,33.6-1.67,40-22.34,2.8,4.5-.75,7.95,1.13,11.94,11.48,1.19,23.1,1.43,34.35-3.49.58,4.05-4.93,3.88-4.36,7.47,26.13,12.53,50.86,5.91,73.29-19.58,2.32,1.51-.2,5.24,2.9,6.37,16-2.87,24.59-16.61,18.27-30.7-9.49,12.26-22.24,16.2-34.78,14.76-4.41,1.11-4.35,4.51-7,4.77-.77-16.14-13-29.41-42.71-28.48-1.56-1.59,2.38-2.89-.55-5.09-9-.81-17.82,3.24-25.91,4.73-3.07,1.38-.12,4-3.39,5-32.61-16.1-66.28-30.27-104.89-18.08.28-2.6.42-3.92.56-5.25-11.33-.74-23.72,4.71-32.23,14.05-8.77,9.64-8.79,22.54.11,32,10.69,11.38,24.44,15.4,39.52,16.09C214.61,220.19,216.83,219.83,216.3,216.44Zm3.25-187.23c.21.53.41,1.06.62,1.58.6,3,1.19,5.89,1.83,9A138.93,138.93,0,0,0,208.28,64C211,65.66,210,68.71,209.94,71,220.3,76.93,225,88.35,235.7,93.42s21.69,6.74,33.7,7.37a43.88,43.88,0,0,1-12.33,16.14c-5.85,5-12,1-17.71,1.11-4.56,6.83-2.8,12.17,4.39,13.78,6.84,1.54,12.88-.41,18.37-4.69,6.5-5.07,13.79-8,22.49-7.61.71,2.62-2.22,5.63-.62,6.59,4.85,3,8.68-1.43,13,2.34-15.51,5.15-26.09,13.55-25.69,30.48,19.21,11.25,34.79,13.22,55.29,7.35,5.69-1.62,11.4-1.11,17.16,0,5.16,1,8.81,5.26,13.54,6.36,12.74,3,22.84,9,28.14,20.11,5.94,3.77,11.29,2.16,16.22.62,9.4-3,16.37-8.94,18.89-18.87,2.09-8.22-.28-15.39-6.17-21.45-3.28-3.38-6.85-4.27-10.63-1s-3.69,6.92-.89,10.73c2.05,2.8,4.95,5.14,4.76,9.05-5.46,9.09-15.8,10.83-26.15,4s-18.1-17.24-29.44-23.34l7.61,1.28C368.76,117,340,87.32,313.61,81.83c9.4-2.71,10.87-12.56,18-17.79l-3.48-2.91c0-1.67,2.36-2.21,1.63-4.18-4.3-4.33-9.16-8.4-12.17-14,.18-7.49,4.87-14.43,2.52-22.2-8.14,0-14.6,4.28-21.6,6.93-8.8-2.77-17.75-4.92-23.92-12.82-3.94,3.41-8,3.33-12.2,1.79-6.92,4.6-13.7,9-22.39,9.54C233.68,23.49,227.26,20,220.13,20,217.8,23.44,218.33,26.32,219.55,29.21Zm20.71,82.73c-13.54-3.18-24.81-4.87-36.76.88a425.54,425.54,0,0,0,22.14,41.77c13.8-.79,27,0,40.09,3.4,3-9.58-.63-16.4-4.85-22.79-10.25.84-20.8,5.35-27.45-5.44C229.38,123.2,231.82,117.15,240.26,111.94Zm162.07,58.37c-1.69-5.43-7.13-9.48-6.59-15.47-11.69-6.79-20.62-8-29.75-4.4-1.38,4.84-1.38,4.84-.23,6.57l4.15-.27C373.52,169.43,392.65,177.76,402.33,170.31ZM195.06,122.52c7.91,10.74,14.17,22.49,23.49,33.17.69-2,1.33-2.85,1.1-3.27-5.46-10.13-10.93-20.27-16.62-30.27C201.29,119.09,198.67,119.2,195.06,122.52Zm70,9c1.08,3.23,1.63,6.72,5.57,8.68l9.55-9.89c.09-2.21-.35-4.3-3.07-5.57C272.61,125.66,268.15,127.05,265.09,131.54Zm-52.42,25.67c-3.7-12.21-14.76-26-21.1-26.29A118.84,118.84,0,0,0,212.67,157.21Z" transform="translate(-16.37 -8.67)"/><path class="cls-2" d="M195.06,122.52c3.61-3.32,6.23-3.43,8-.37,5.69,10,11.16,20.14,16.62,30.27.23.42-.41,1.31-1.1,3.27C209.23,145,203,133.26,195.06,122.52Z" transform="translate(-16.37 -8.67)"/><path class="cls-2" d="M265.09,131.54c3.06-4.49,7.52-5.88,12.05-6.78,2.72,1.27,3.16,3.36,3.07,5.57l-9.55,9.89C266.72,138.26,266.17,134.77,265.09,131.54Z" transform="translate(-16.37 -8.67)"/><path class="cls-2" d="M212.67,157.21a118.84,118.84,0,0,1-21.1-26.29C197.91,131.24,209,145,212.67,157.21Z" transform="translate(-16.37 -8.67)"/><path class="cls-2" d="M216.3,216.44c-2.72-3.38-.69-7.07-1.87-12.42,4.68,4.28,5,8.11,5.34,11.91Z" transform="translate(-16.37 -8.67)"/><path class="cls-2" d="M394.82,147.58c1.59-2.52,3.23-2.47,4.92-.09-.38.8-.77,1.59-1.05,2.18C396.48,150,395.63,148.81,394.82,147.58Z" transform="translate(-16.37 -8.67)"/><path class="cls-2" d="M219.55,29.21l1.67-1.76,2.94.8c-.48,2.17-2.12,2.53-4,2.55C220,30.27,219.76,29.74,219.55,29.21Z" transform="translate(-16.37 -8.67)"/><path class="cls-1" d="M245.24,60.08a16.68,16.68,0,0,0,8.18.31c1.48,4,.85,7.16-3.27,7.53C245.74,68.32,244.35,65.33,245.24,60.08Z" transform="translate(-16.37 -8.67)"/><path class="cls-1" d="M279,60.82l7.77-.6c1.27,3.73,1.29,7.3-3.53,7.71C278.83,68.3,278.05,65,279,60.82Z" transform="translate(-16.37 -8.67)"/><path class="cls-1" d="M266.07,75.58a6.22,6.22,0,0,1-5-4c2.65-3.17,5.73-2.58,9.18-1.52C270.38,73.85,268.24,74.84,266.07,75.58Z" transform="translate(-16.37 -8.67)"/><path class="cls-1" d="M316.88,25.82c1.24,2,1,3.4.14,5.3-3.23-.55-6.58-1.86-9.9.12A11.67,11.67,0,0,1,316.88,25.82Z" transform="translate(-16.37 -8.67)"/><path class="cls-1" d="M274.52,80.16c-2.54,4.87-6,5.47-11.38,2.57C267.34,80.24,271.34,82.12,274.52,80.16Z" transform="translate(-16.37 -8.67)"/><path class="cls-1" d="M224.16,28.25l-2.94-.8c1.84-5,4.9-2.85,7.85-1.36,0,.86-.06,1.73-.09,2.59A5.57,5.57,0,0,0,224.16,28.25Z" transform="translate(-16.37 -8.67)"/><path class="cls-2" d="M229,28.68c0-.86.05-1.73.09-2.59a6.14,6.14,0,0,1,5.21,5.13C231.41,32.45,230.38,30.11,229,28.68Z" transform="translate(-16.37 -8.67)"/><path class="cls-1" d="M48.46,249.77a67.27,67.27,0,0,1,8.15.57,39.41,39.41,0,0,1,8.66,2,22.22,22.22,0,0,1,6.82,3.79,7.24,7.24,0,0,1,2.78,5.75,5.22,5.22,0,0,1-1.14,3.41,4.49,4.49,0,0,1-3.66,1.39,10.77,10.77,0,0,1-3.86-.76c-1.3-.51-2.78-1-4.42-1.58s-3.54-1.07-5.68-1.58a32.87,32.87,0,0,0-7.52-.76q-8.34,0-12.32,3a9.63,9.63,0,0,0-4,8.15,9.73,9.73,0,0,0,1.77,5.94,15,15,0,0,0,4.74,4.1A32.38,32.38,0,0,0,45.49,286c2.49.75,5,1.47,7.65,2.14A87.41,87.41,0,0,1,61.92,291a29.81,29.81,0,0,1,7.77,4.3,20,20,0,0,1,5.49,6.69,22.26,22.26,0,0,1,2.09,10.24,26.92,26.92,0,0,1-2.4,11.56,26,26,0,0,1-6.57,8.72,29.41,29.41,0,0,1-10,5.55,39.27,39.27,0,0,1-12.64,2,66.48,66.48,0,0,1-8.84-.69,44.69,44.69,0,0,1-9.6-2.4,24.17,24.17,0,0,1-7.71-4.55,9.09,9.09,0,0,1-3.16-7,6,6,0,0,1,1.33-4.05,5,5,0,0,1,4-1.51,6.87,6.87,0,0,1,3.54.82,12.64,12.64,0,0,1,2.4,1.83,19.84,19.84,0,0,0,8.59,4.42A42.46,42.46,0,0,0,46.06,328a45.93,45.93,0,0,0,6.13-.44,17.92,17.92,0,0,0,5.87-1.83,11.32,11.32,0,0,0,6.2-11,12.61,12.61,0,0,0-1.58-6.63,14.09,14.09,0,0,0-4.24-4.36,24.41,24.41,0,0,0-6.25-2.9q-3.6-1.14-7.77-2.28-4.68-1.26-9.22-2.78a29.17,29.17,0,0,1-8.09-4.1,20.27,20.27,0,0,1-5.75-6.57,20.82,20.82,0,0,1-2.21-10.17A24.53,24.53,0,0,1,21.43,264a22.67,22.67,0,0,1,6.19-7.83,27.33,27.33,0,0,1,9.28-4.8A39.53,39.53,0,0,1,48.46,249.77Z" transform="translate(-16.37 -8.67)"/><path class="cls-1" d="M176.44,335.17a18.66,18.66,0,0,1-.95-4.8c-.12-1.77-.19-4-.19-6.57,0-1.85,0-3.3.07-4.36s.06-2,.06-2.78,0-1.6.06-2.4.07-1.91.07-3.35c0-2.94-.07-5.91-.19-8.9a31.31,31.31,0,0,0-1.33-8.09,13.49,13.49,0,0,0-3.54-5.87c-1.6-1.52-3.91-2.28-6.95-2.28q-7.7,0-12,7.33t-5.18,23.37q-.26,5.05-.25,9.23a42.7,42.7,0,0,1-.51,7.13,9.82,9.82,0,0,1-1.83,4.62q-1.32,1.64-4.36,1.64a5.08,5.08,0,0,1-4-1.46,9.31,9.31,0,0,1-1.83-4.35,40.55,40.55,0,0,1-.63-7.08c0-2.78-.19-6-.44-9.73q-.39-6.06-1.2-11.62a39.17,39.17,0,0,0-2.66-9.79,17.56,17.56,0,0,0-4.92-6.76,12.13,12.13,0,0,0-7.9-2.53q-4.55,0-7,2.21a12.8,12.8,0,0,0-3.6,5.82,31.23,31.23,0,0,0-1.33,8.08q-.19,4.49-.19,9c0,1.52,0,2.64.06,3.35s.07,1.37.07,2,0,1.35.06,2.27.06,2.36.06,4.3q0,4.17-.19,7.2a19.27,19.27,0,0,1-.94,5.18c-.59,1.69-1.39,2.72-2.4,3.1a7.94,7.94,0,0,1-2.78.56c-2.62,0-4.3-.92-5.06-2.77A23.71,23.71,0,0,1,91.29,328q0-2.91-.06-6.51c0-2.4-.07-5.32-.07-8.78v-4.42c0-1.26,0-2.48.07-3.66s.08-2.38.12-3.6.11-2.63.19-4.24q.38-7.69,2.78-12.31a19.72,19.72,0,0,1,5.69-7,17.1,17.1,0,0,1,7.07-3.1,39,39,0,0,1,7-.69,29,29,0,0,1,11.5,2,21.09,21.09,0,0,1,12.06,12.76,39.9,39.9,0,0,1,2,8.46,34.27,34.27,0,0,1,2.09-8.27,21.61,21.61,0,0,1,4.67-7.33,23,23,0,0,1,8-5.24,32,32,0,0,1,12.13-2,37.26,37.26,0,0,1,7,.7,15.27,15.27,0,0,1,6.63,3.09,18.55,18.55,0,0,1,5.12,6.89q2.09,4.49,2.47,12.06c.08,1.61.14,3,.18,4.24s.09,2.42.13,3.6.06,2.4.06,3.66v4.42c0,3.46,0,6.38-.06,8.78s-.06,4.57-.06,6.51c0,1.6-.07,3.08-.19,4.42a10.73,10.73,0,0,1-.82,3.41A5.31,5.31,0,0,1,185.1,338a6.15,6.15,0,0,1-3.48.82,5.52,5.52,0,0,1-3.28-.82A6,6,0,0,1,176.44,335.17Z" transform="translate(-16.37 -8.67)"/><path class="cls-1" d="M232,315.72a66.26,66.26,0,0,1-9.29-.7,46,46,0,0,1-10.55-3q1.14,7.71,6.38,11.62t15.1,3.92a42.33,42.33,0,0,0,6.38-.44,50.15,50.15,0,0,0,5-1l3.79-1a11.55,11.55,0,0,1,3-.44,6.15,6.15,0,0,1,3.42,1.07,4,4,0,0,1,1.64,3.6,6.3,6.3,0,0,1-2.59,5.18,20.31,20.31,0,0,1-6.32,3.22,38.82,38.82,0,0,1-7.9,1.64,69.11,69.11,0,0,1-7.32.45,44.31,44.31,0,0,1-13.71-2,29.18,29.18,0,0,1-10.8-6.12,28.12,28.12,0,0,1-7.08-10.17,40.74,40.74,0,0,1-.06-28,29.43,29.43,0,0,1,6.76-10.23,28.33,28.33,0,0,1,10.17-6.32,36.77,36.77,0,0,1,12.7-2.15,38.47,38.47,0,0,1,10.29,1.39,27.8,27.8,0,0,1,8.85,4.17,21.21,21.21,0,0,1,6.19,7,20.31,20.31,0,0,1,2.33,9.92,18,18,0,0,1-1.89,8.59,14.82,14.82,0,0,1-5.37,5.69,25.7,25.7,0,0,1-8.34,3.15A52.71,52.71,0,0,1,232,315.72Zm-.88-29.32a25.83,25.83,0,0,0-6.57.83,17.26,17.26,0,0,0-5.75,2.65,15.43,15.43,0,0,0-4.36,4.8,19.79,19.79,0,0,0-2.4,7.39,40.7,40.7,0,0,0,9.35,3,53.72,53.72,0,0,0,9.6.82q7.46,0,11-1.83t3.6-6.63a10.46,10.46,0,0,0-3.34-7.71Q239,286.4,231.15,286.4Z" transform="translate(-16.37 -8.67)"/><path class="cls-1" d="M271.19,331.63c-.08-3-.17-6.57-.25-10.61s-.15-8.42-.19-13.14-.08-9.68-.13-14.91-.06-10.56-.06-16q0-9,.13-15.41a93.9,93.9,0,0,1,.69-10.62,15.54,15.54,0,0,1,1.83-6.12,4,4,0,0,1,3.54-2,5.67,5.67,0,0,1,3.79,1.39c1.1.93,1.73,3.07,1.9,6.44q.49,9.11.63,18.89t.12,19.27v10.92q0,5.25-.12,10.36t-.25,10.43c-.09,3.53-.22,7.2-.38,11a23.28,23.28,0,0,1-.57,4.67,6.56,6.56,0,0,1-1.2,2.53,3,3,0,0,1-1.71,1.07,11.1,11.1,0,0,1-2.21.19,5.06,5.06,0,0,1-3.79-1.58Q271.45,336.81,271.19,331.63Z" transform="translate(-16.37 -8.67)"/><path class="cls-1" d="M299.49,331.63c-.08-3-.17-6.57-.25-10.61s-.15-8.42-.19-13.14-.09-9.68-.13-14.91-.06-10.56-.06-16q0-9,.13-15.41a93.9,93.9,0,0,1,.69-10.62,15.54,15.54,0,0,1,1.83-6.12,4,4,0,0,1,3.54-2,5.67,5.67,0,0,1,3.79,1.39c1.09.93,1.73,3.07,1.9,6.44q.5,9.11.63,18.89t.12,19.27v10.92q0,5.25-.12,10.36t-.25,10.43c-.09,3.53-.22,7.2-.38,11a23.28,23.28,0,0,1-.57,4.67,6.56,6.56,0,0,1-1.2,2.53,3,3,0,0,1-1.71,1.07,11.1,11.1,0,0,1-2.21.19,5,5,0,0,1-3.79-1.58Q299.75,336.81,299.49,331.63Z" transform="translate(-16.37 -8.67)"/><path class="cls-1" d="M341.82,362.08a19.09,19.09,0,0,1-3.1,4.3,4.73,4.73,0,0,1-3.35,1.39,6.5,6.5,0,0,1-3.54-1.14,3.56,3.56,0,0,1-1.76-3.16,17.09,17.09,0,0,1,1.32-5.43c.89-2.36,2-4.93,3.29-7.71s2.67-5.64,4.1-8.59l3.92-8.08.88-1.9q-3.78-7.45-7.77-15.92t-7.26-16q-3.29-7.59-5.37-13.21c-1.39-3.74-2.08-6.21-2.08-7.39a3.72,3.72,0,0,1,1.32-2.84,4.81,4.81,0,0,1,3.35-1.2,8.53,8.53,0,0,1,3.41.7,6.82,6.82,0,0,1,3,3.09q2,3.8,4.24,8.65t4.42,10.18q2.2,5.3,4.55,10.73T350.15,319c1.85-3.45,3.84-7.07,5.94-10.86s4.15-7.46,6.13-11l5.49-9.79q2.54-4.49,4.3-7.51a14,14,0,0,1,3.54-4.17,6.25,6.25,0,0,1,3.66-1.27,3.93,3.93,0,0,1,2.53,1.08,3.54,3.54,0,0,1,1.26,2.84q0,2.65-2.34,8.53t-6,13.58q-3.66,7.71-8.27,16.49t-9.16,17.18q-4.55,8.4-8.66,15.73T341.82,362.08Z" transform="translate(-16.37 -8.67)"/><path class="cls-1" d="M447.68,274.53a44.37,44.37,0,0,1,7.4.63,36.46,36.46,0,0,1,6.75,1.77,16.09,16.09,0,0,1,4.93,2.78,4.92,4.92,0,0,1,1.9,3.79q0,5.56-6.32,5.56a9,9,0,0,1-2.84-.44c-.89-.3-1.92-.59-3.1-.89s-2.65-.59-4.42-.88a40.24,40.24,0,0,0-6.57-.45q-8.34,0-12.89,5.69T428,306.87q0,10,4.61,16.05T445.66,329a34,34,0,0,0,8.59-.88,25.31,25.31,0,0,0,5.37-2c1.39-.76,2.53-1.44,3.41-2a5.33,5.33,0,0,1,3-.88,6,6,0,0,1,3.6.95c.89.63,1.33,1.91,1.33,3.85a7.19,7.19,0,0,1-2.34,5.31,19.18,19.18,0,0,1-5.87,3.79,36.31,36.31,0,0,1-7.64,2.27,41.36,41.36,0,0,1-7.52.76q-15.29,0-24-8.47t-8.71-24a38.44,38.44,0,0,1,2.08-12.7,30.21,30.21,0,0,1,6.25-10.55,29.84,29.84,0,0,1,10.3-7.2A35.49,35.49,0,0,1,447.68,274.53Z" transform="translate(-16.37 -8.67)"/><path class="cls-1" d="M533.47,339.47a6.41,6.41,0,0,1-3.22-.7,4.69,4.69,0,0,1-1.84-1.83,8.29,8.29,0,0,1-.88-2.72c-.17-1.05-.3-2.16-.38-3.34a26,26,0,0,1-8.15,6.57q-5,2.64-12.7,2.65a37,37,0,0,1-10-1.45,24.25,24.25,0,0,1-9.29-5.06,26.71,26.71,0,0,1-6.82-9.66q-2.65-6.07-2.65-15.29a49.92,49.92,0,0,1,1.77-13.52,32.6,32.6,0,0,1,5.37-11.05,26.09,26.09,0,0,1,9-7.52,27.68,27.68,0,0,1,12.76-2.78,27.07,27.07,0,0,1,11.5,2.34,24.45,24.45,0,0,1,9.09,7.64c0-1,.05-2,.13-3.09a9.33,9.33,0,0,1,.69-2.91,4.78,4.78,0,0,1,1.84-2.15,6.23,6.23,0,0,1,3.41-.82,5.17,5.17,0,0,1,3.54,1.52q1.64,1.51,1.89,6.57.38,6.69.57,12c.12,3.54.19,7.2.19,11q0,6.94-.13,12.76T538.52,331a29.92,29.92,0,0,1-.69,4.61,7.31,7.31,0,0,1-1.08,2.53,2.91,2.91,0,0,1-1.51,1.07A6.43,6.43,0,0,1,533.47,339.47Zm-6.83-32.09a25.46,25.46,0,0,0-1.95-10.74,17.69,17.69,0,0,0-4.93-6.51,17.26,17.26,0,0,0-6.38-3.22,25.23,25.23,0,0,0-6.32-.88,16.89,16.89,0,0,0-7.77,1.64,14.26,14.26,0,0,0-5.24,4.48,19.41,19.41,0,0,0-3,6.7,35.24,35.24,0,0,0-.95,8.4q0,11.12,4.87,16.42T508.2,329a19,19,0,0,0,8.4-1.7,15.78,15.78,0,0,0,5.69-4.62,19.79,19.79,0,0,0,3.28-6.88A31.91,31.91,0,0,0,526.64,307.38Z" transform="translate(-16.37 -8.67)"/><path class="cls-1" d="M564.92,330.75q-.37-8-.44-18.89T564.42,287q-1.26.12-3,.12h-2.72c-1.51,0-2.88,0-4.1-.12a9.4,9.4,0,0,1-3.22-.76,4.78,4.78,0,0,1-2.15-1.83,6.23,6.23,0,0,1-.76-3.35q0-6.06,9.1-6.07H561a19.32,19.32,0,0,1,3.41.26c0-4.47.08-8,.25-10.74a28,28,0,0,1,1-6.26,4.84,4.84,0,0,1,1.89-2.9,6.18,6.18,0,0,1,3.1-.7,4.27,4.27,0,0,1,3.29,1.39,9.57,9.57,0,0,1,2,3.54,20.09,20.09,0,0,1,.89,4.8c.12,1.77.19,3.5.19,5.18,0,1.18,0,2.26-.07,3.22s-.06,1.84-.06,2.59a15.35,15.35,0,0,1,3.66-.56c1.27-.05,2.49-.07,3.67-.07a14.73,14.73,0,0,1,7.2,1.45,5.06,5.06,0,0,1,2.53,4.74,5.3,5.3,0,0,1-.89,3.22,5.56,5.56,0,0,1-2.34,1.84,11.3,11.3,0,0,1-3.41.82c-1.3.12-2.71.19-4.23.19h-2.9a16.89,16.89,0,0,1-3-.26V299c0,3.71,0,7.26-.12,10.67s-.17,6.81-.26,10.17-.21,6.95-.37,10.74a23.5,23.5,0,0,1-.57,4.68,6.51,6.51,0,0,1-1.2,2.52,3.09,3.09,0,0,1-1.71,1.08,11.9,11.9,0,0,1-2.21.19,5.24,5.24,0,0,1-3.85-1.58C565.7,336.46,565.09,334.2,564.92,330.75Z" transform="translate(-16.37 -8.67)"/></svg>